<svg width="560" height="679" viewBox="0 0 560 679" fill="none" xmlns="http://www.w3.org/2000/svg">
<g clip-path="url(#clip0_972_2)">
<path d="M388.179 22.2615C144.465 157.911 72.0001 362 15.0001 509.5C-8.10979 569.2 22.0331 636.273 82.0192 658.628L90.6328 661.838C154.786 685.747 226.174 653.122 250.082 588.969L331.462 370.604C373.987 264.187 431.227 211.166 470.092 186.015C489.91 173.19 510.116 163.656 527.922 148.158C532.734 143.97 537.766 136.146 540.384 130.33C545.956 117.947 548.32 109.007 548.582 101.91C550.212 57.7084 507.383 15.3719 463.748 8.13326C454.959 6.67534 445.492 6.25942 435.005 6.86303C416.64 7.91999 403.475 13.7483 388.179 22.2615Z" fill="black" stroke="black" stroke-width="5"/>
<path d="M514.5 28.5004C499.46 24.3449 458.51 19.3392 442.975 37.0216" stroke="white" stroke-width="5"/>
<path d="M546 69.5C530.96 65.3444 483.665 60.9722 468.178 77.5376" stroke="white" stroke-width="5"/>
</g>
<defs>
<clipPath id="clip0_972_2">
<rect width="560" height="679" fill="white"/>
</clipPath>
</defs>
</svg>
