<svg width="77" height="56" viewBox="0 0 77 56" fill="none" xmlns="http://www.w3.org/2000/svg">
<path d="M36.327 24.848L32.3721 24.2488L36.327 24.848ZM70.089 13.1633C71.9201 14.3993 74.4064 13.9169 75.6423 12.0858C76.8783 10.2548 76.3959 7.76851 74.5648 6.53255L70.089 13.1633ZM0.0427978 55.4332C14.277 55.6411 23.9639 52.1112 30.3623 46.1448C36.7115 40.2242 39.2196 32.4586 40.2819 25.4472L32.3721 24.2488C31.4426 30.3841 29.394 36.1092 24.9064 40.2939C20.4681 44.4326 13.038 47.6222 0.159627 47.4341L0.0427978 55.4332ZM40.2819 25.4472C41.4143 17.9726 44.9431 12.1932 49.6799 9.60951C54.1583 7.16671 60.9026 6.96245 70.089 13.1633L74.5648 6.53255C63.7513 -0.766611 53.7456 -1.72089 45.8491 2.58635C38.2109 6.75265 33.7396 15.2234 32.3721 24.2488L40.2819 25.4472Z" fill="black"/>
</svg>
