<svg width="37" height="466" viewBox="0 0 37 466" fill="none" xmlns="http://www.w3.org/2000/svg">
<g clip-path="url(#clip0_980_9)">
<g filter="url(#filter0_ii_980_9)">
<path d="M6.28033 361.898L-0.327661 410.256L-0.00930324 375.958L2.22112 357.895L4.67446 336.233L4.5899 324.14L1.24107 306.426L3.30366 282.1L6.8594 267.315L6.14646 245.179L-2.11161 234.942L2.79762 227.465L1.91814 216.99L4.49766 204.506L6.4219 195.872L5.01203 180.501L1.24555 174.016L3.9929 167.794L6.06767 118.599L4.54635 105.027L0.35838 55.9998L14.9096 152.985L18.0552 190.46L33.2895 242.136L29.1053 246.879L29.7055 252.891L25.0192 256.769L26.4842 262.278L17.9763 269.532L17.2377 279.212L9.83223 293.342L12.4143 316.705L8.85858 331.49L8.66385 339.12L10.7008 346.61L6.7678 351.785L6.28033 361.898Z" fill="#A42626"/>
</g>
</g>
<defs>
<filter id="filter0_ii_980_9" x="-2.11157" y="52" width="35.4011" height="362.256" filterUnits="userSpaceOnUse" color-interpolation-filters="sRGB">
<feFlood flood-opacity="0" result="BackgroundImageFix"/>
<feBlend mode="normal" in="SourceGraphic" in2="BackgroundImageFix" result="shape"/>
<feColorMatrix in="SourceAlpha" type="matrix" values="0 0 0 0 0 0 0 0 0 0 0 0 0 0 0 0 0 0 127 0" result="hardAlpha"/>
<feOffset dy="4"/>
<feGaussianBlur stdDeviation="2"/>
<feComposite in2="hardAlpha" operator="arithmetic" k2="-1" k3="1"/>
<feColorMatrix type="matrix" values="0 0 0 0 0 0 0 0 0 0 0 0 0 0 0 0 0 0 0.25 0"/>
<feBlend mode="normal" in2="shape" result="effect1_innerShadow_980_9"/>
<feColorMatrix in="SourceAlpha" type="matrix" values="0 0 0 0 0 0 0 0 0 0 0 0 0 0 0 0 0 0 127 0" result="hardAlpha"/>
<feOffset dy="-4"/>
<feGaussianBlur stdDeviation="2"/>
<feComposite in2="hardAlpha" operator="arithmetic" k2="-1" k3="1"/>
<feColorMatrix type="matrix" values="0 0 0 0 0 0 0 0 0 0 0 0 0 0 0 0 0 0 0.25 0"/>
<feBlend mode="normal" in2="effect1_innerShadow_980_9" result="effect2_innerShadow_980_9"/>
</filter>
<clipPath id="clip0_980_9">
<rect width="37" height="466" fill="white"/>
</clipPath>
</defs>
</svg>
