<svg width="32" height="466" viewBox="0 0 32 466" fill="none" xmlns="http://www.w3.org/2000/svg">
<g clip-path="url(#clip0_980_7)">
<g filter="url(#filter0_ii_980_7)">
<path d="M34.6809 469.505L0.486843 204.424L3.89667 200.207L3.18722 191.88L7.05351 189.07L5.6236 180.977L12.6357 175.591L12.9465 163.044L18.7927 147.923L15.8229 115.435L18.3665 97.4956L18.2813 87.41L16.2987 76.3838L19.4803 71.4626L19.5628 58.2109L23.6024 -2.99996L24.4603 42.6201L23.1541 65.6038L21.7764 93.2782L22.2466 109.462L25.6838 134.798L24.7268 166.226L22.1832 184.165L23.5196 214.071L30.8947 231.906L26.9569 239.406L28.0513 253.832L26.2639 269.193L24.9082 279.745L26.6158 300.974L30.0394 311.533L27.9027 318.449L27.7541 383.066L29.4975 401.949L34.6809 469.505Z" fill="#A42626"/>
</g>
</g>
<defs>
<filter id="filter0_ii_980_7" x="0.486816" y="-7" width="34.1941" height="480.505" filterUnits="userSpaceOnUse" color-interpolation-filters="sRGB">
<feFlood flood-opacity="0" result="BackgroundImageFix"/>
<feBlend mode="normal" in="SourceGraphic" in2="BackgroundImageFix" result="shape"/>
<feColorMatrix in="SourceAlpha" type="matrix" values="0 0 0 0 0 0 0 0 0 0 0 0 0 0 0 0 0 0 127 0" result="hardAlpha"/>
<feOffset dy="4"/>
<feGaussianBlur stdDeviation="2"/>
<feComposite in2="hardAlpha" operator="arithmetic" k2="-1" k3="1"/>
<feColorMatrix type="matrix" values="0 0 0 0 0 0 0 0 0 0 0 0 0 0 0 0 0 0 0.25 0"/>
<feBlend mode="normal" in2="shape" result="effect1_innerShadow_980_7"/>
<feColorMatrix in="SourceAlpha" type="matrix" values="0 0 0 0 0 0 0 0 0 0 0 0 0 0 0 0 0 0 127 0" result="hardAlpha"/>
<feOffset dy="-4"/>
<feGaussianBlur stdDeviation="2"/>
<feComposite in2="hardAlpha" operator="arithmetic" k2="-1" k3="1"/>
<feColorMatrix type="matrix" values="0 0 0 0 0 0 0 0 0 0 0 0 0 0 0 0 0 0 0.25 0"/>
<feBlend mode="normal" in2="effect1_innerShadow_980_7" result="effect2_innerShadow_980_7"/>
</filter>
<clipPath id="clip0_980_7">
<rect width="32" height="466" fill="white"/>
</clipPath>
</defs>
</svg>
